<svg width="151" height="76" viewBox="0 0 151 76" fill="none" xmlns="http://www.w3.org/2000/svg">
<path fill-rule="evenodd" clip-rule="evenodd" d="M36.19 30.75C46.64 30.75 55.11 39.23 55.11 49.68C55.11 60.13 46.63 68.6 36.18 68.6C25.73 68.6 17.26 60.13 17.26 49.68C17.26 39.23 25.74 30.76 36.19 30.76V30.75Z" fill="#1255AD"/>
<path fill-rule="evenodd" clip-rule="evenodd" d="M34.6101 0C15.66 0 0.310073 15.37 0.320073 34.32C0.320073 48.23 8.73007 60.76 21.6001 66.05C12.5601 58 11.7601 44.14 19.8201 35.1C23.6401 30.82 28.9801 28.2 34.7001 27.81V0H34.6101ZM37.6701 12.12C53.5801 12.22 66.3901 25.19 66.2901 41.1C66.2201 52.05 59.9501 62.02 50.1001 66.82C51.1801 65.88 52.1601 64.84 53.0401 63.7C60.7801 54.38 59.5001 40.56 50.1801 32.82C46.6401 29.88 42.2601 28.13 37.6701 27.81V12.12Z" fill="#62B22F"/>
<path fill-rule="evenodd" clip-rule="evenodd" d="M84.9101 11.64C85.0801 12.78 85.1901 13.92 85.2501 15.07C85.3401 16.56 85.3801 18.35 85.3801 20.48V46.99C85.3801 48.58 85.3801 50.08 85.4201 51.5C85.3601 52.55 85.5501 53.6 85.9801 54.56C86.3501 55.19 87.0401 55.55 87.7701 55.49L88.7601 55.36L90.2901 60.67C88.5901 61.31 86.7901 61.62 84.9701 61.59C83.2301 61.63 81.5001 61.2 79.9901 60.33C78.7401 59.67 77.7601 58.6 77.2001 57.3C76.8101 56.35 76.5501 55.36 76.4101 54.35C76.3201 53.55 76.2701 51.87 76.2701 49.3V23.92C76.3001 20.5 76.1401 17.09 75.8101 13.69L84.9101 11.63V11.64ZM94.8101 27.53L102.72 26.13C103.02 27.28 103.2 27.95 103.25 28.16C103.31 28.54 103.33 28.93 103.32 29.32C105.04 27.19 107.83 26.13 111.69 26.13C114.06 26.11 116.38 26.82 118.33 28.16C120.36 29.57 121.97 31.49 123 33.74C124.14 36.11 124.7 39.16 124.7 42.88C124.7 46.6 124.38 49.53 123.71 51.68C123.08 53.77 121.96 55.68 120.45 57.25C119.19 58.64 117.67 59.77 115.98 60.57C114.37 61.24 112.64 61.57 110.89 61.54C108.4 61.59 105.95 60.98 103.78 59.75C103.84 60.18 103.87 60.61 103.88 61.04C103.91 61.56 103.91 62.05 103.91 62.53V73.16L95.3401 75.42V34.56C95.3401 32.66 95.3101 31.45 95.2701 30.95C95.2301 30.43 95.0801 29.29 94.8101 27.52V27.53ZM103.91 52.5C104.59 53.11 105.37 53.6 106.21 53.96C107.05 54.32 107.95 54.5 108.86 54.49C111.08 54.49 112.66 53.68 113.6 52.04C114.54 50.4 114.99 47.63 114.99 43.73C114.99 40.32 114.68 37.74 114.05 35.98C113.42 34.24 112.02 33.37 109.84 33.37C107.58 33.34 105.42 34.28 103.9 35.96V52.5H103.91ZM147.42 19.22C146.83 18.92 146.22 18.66 145.6 18.43C145.02 18.21 144.4 18.1 143.77 18.09C141.29 18.09 140.05 19.38 140.05 21.94V26.73H148.69L146.41 32.98H140.05V60.81H131.42V32.98H128.36V26.73H131.62C131.49 25.18 131.42 23.64 131.42 22.15C131.42 18.77 132.38 16.18 134.29 14.33C136.19 12.5 138.85 11.58 142.29 11.57C143.64 11.57 144.99 11.72 146.31 12.04C147.7 12.41 149.04 12.97 150.28 13.7L147.42 19.21V19.22Z" fill="#596573"/>
</svg>
